<?xml version="1.0" encoding="UTF-8" standalone="no"?>
<svg
   xmlns:dc="http://purl.org/dc/elements/1.1/"
   xmlns:cc="http://creativecommons.org/ns#"
   xmlns:rdf="http://www.w3.org/1999/02/22-rdf-syntax-ns#"
   xmlns:svg="http://www.w3.org/2000/svg"
   xmlns="http://www.w3.org/2000/svg"
   id="svg28"
   height="73.639999mm"
   width="70.040001mm"
   version="1.0">
  <metadata
     id="metadata32">
    <rdf:RDF>
      <cc:Work
         rdf:about="">
        <dc:format>image/svg+xml</dc:format>
        <dc:type
           rdf:resource="http://purl.org/dc/dcmitype/StillImage" />
      </cc:Work>
    </rdf:RDF>
  </metadata>
  <defs
     id="defs6">
    <clipPath
       id="clipEmfPath1"
       clipPathUnits="userSpaceOnUse">
      <path
         id="path2"
         d="M 2.2392384,1.2795648 L 267.2691,1.2795648 L 267.2691,279.58491 L 2.2392384,279.58491 z" />
    </clipPath>
    <pattern
       y="0"
       x="0"
       height="6"
       width="6"
       patternUnits="userSpaceOnUse"
       id="EMFhbasepattern" />
  </defs>
  <path
     id="path8"
     d="  M 77.653589,277.42565   L 125.15743,248.97532   L 125.15743,48.863381   L 77.653589,77.333698   z "
     style="fill:#000000;fill-rule:evenodd;fill-opacity:1;stroke:none;" />
  <path
     id="path10"
     d="  M 77.653589,277.42565   L 125.15743,248.97532   L 125.15743,48.863381   L 77.653589,77.333698   z "
     clip-path="url(#clipEmfPath1)"
     style="fill:none;stroke:#000000;stroke-width:1.2795649px;stroke-linecap:butt;stroke-linejoin:miter;stroke-miterlimit:8;stroke-dasharray:none;stroke-opacity:1;" />
  <path
     id="path12"
     d="  M 99.806055,65.937574   L 188.23598,3.99864  "
     clip-path="url(#clipEmfPath1)"
     style="fill:none;stroke:#000000;stroke-width:3.9986401px;stroke-linecap:butt;stroke-linejoin:miter;stroke-miterlimit:8;stroke-dasharray:none;stroke-opacity:1;" />
  <path
     id="path14"
     d="  M 148.74941,33.628563   L 188.67583,5.99796   C 206.84965,31.729209 224.24373,55.940974 242.41755,81.672223   C 240.41823,120.75893 203.01095,130.91547 209.88862,123.69793   C 209.14887,127.49664 169.12248,63.658349 148.74941,33.628563   z "
     style="fill:#000000;fill-rule:evenodd;fill-opacity:1;stroke:none;" />
  <path
     id="path16"
     d="  M 148.74941,33.628563   L 188.67583,5.99796   C 206.84965,31.729209 224.24373,55.940974 242.41755,81.672223   C 240.41823,120.75893 203.01095,130.91547 209.88862,123.69793   C 209.14887,127.49664 169.12248,63.658349 148.74941,33.628563   z "
     clip-path="url(#clipEmfPath1)"
     style="fill:none;stroke:#000000;stroke-width:1.3395444px;stroke-linecap:butt;stroke-linejoin:miter;stroke-miterlimit:8;stroke-dasharray:none;stroke-opacity:1;" />
  <path
     id="path18"
     d="  M 220.04516,116.20048   L 118.11983,187.43625  "
     style="fill:none;stroke:#000000;stroke-width:6.0779328px;stroke-linecap:butt;stroke-linejoin:miter;stroke-miterlimit:8;stroke-dasharray:none;stroke-opacity:1;" />
  <path
     id="path20"
     d="  M 130.77552,179.79885   L 169.54234,152.14825   L 265.28977,256.57274   C 232.5609,279.06509 218.12581,279.14506 205.49011,269.6283   C 182.8778,236.93941 155.68705,211.56804 130.77552,179.79885   z "
     style="fill:#000000;fill-rule:evenodd;fill-opacity:1;stroke:none;" />
  <path
     id="path22"
     d="  M 130.77552,179.79885   L 169.54234,152.14825   L 265.28977,256.57274   C 232.5609,279.06509 218.12581,279.14506 205.49011,269.6283   C 182.8778,236.93941 155.68705,211.56804 130.77552,179.79885   z "
     clip-path="url(#clipEmfPath1)"
     style="fill:none;stroke:#000000;stroke-width:1.3395444px;stroke-linecap:butt;stroke-linejoin:miter;stroke-miterlimit:8;stroke-dasharray:none;stroke-opacity:1;" />
  <path
     id="path24"
     d="  M 5.0382864,66.457397   L 56.07093,29.829855   L 125.15743,29.829855   L 74.134786,66.457397   z "
     style="fill:#000000;fill-rule:evenodd;fill-opacity:1;stroke:none;" />
  <path
     id="path26"
     d="  M 5.0382864,66.457397   L 56.07093,29.829855   L 125.15743,29.829855   L 74.134786,66.457397   z "
     clip-path="url(#clipEmfPath1)"
     style="fill:none;stroke:#000000;stroke-width:1.2795649px;stroke-linecap:butt;stroke-linejoin:miter;stroke-miterlimit:8;stroke-dasharray:none;stroke-opacity:1;" />
</svg>
